<?xml version="1.0" encoding="UTF-8"?><svg xmlns="http://www.w3.org/2000/svg" xmlns:xlink="http://www.w3.org/1999/xlink" contentScriptType="text/ecmascript" width="375" zoomAndPan="magnify" contentStyleType="text/css" viewBox="0 0 375 374.999991" height="374.999991" preserveAspectRatio="xMidYMid meet" version="1.0"><path fill="rgb(0%, 44.709778%, 0%)" d="M 135.875 37.933594 L 135.875 319.976562 L 196.996094 338.683594 L 196.996094 102.503906 C 196.996094 95.703125 196.996094 92.316406 200.386719 88.910156 C 202.082031 85.519531 205.46875 85.519531 208.859375 87.214844 C 217.34375 90.609375 222.464844 97.410156 222.464844 111.007812 L 222.464844 204.429688 C 242.828125 214.621094 259.78125 214.621094 273.367188 204.429688 C 286.953125 194.238281 293.75 178.964844 293.75 153.480469 C 293.765625 126.296875 288.660156 109.304688 276.78125 95.71875 C 266.601562 82.121094 247.941406 70.222656 220.769531 61.726562 C 186.820312 51.535156 157.949219 43.035156 135.875 37.933594 Z M 118.90625 214.65625 L 40.816406 241.84375 L 28.957031 246.929688 C 10.289062 255.425781 0.105469 263.921875 0.105469 272.417969 C 1.800781 282.609375 5.191406 296.222656 30.652344 304.714844 C 54.421875 313.210938 73.09375 316.605469 120.628906 303.019531 L 120.628906 272.417969 C 74.773438 287.699219 67.992188 286.011719 61.199219 282.617188 C 54.40625 279.226562 54.398438 275.808594 56.089844 274.113281 C 61.1875 270.722656 79.863281 263.914062 79.863281 263.914062 L 118.90625 250.320312 Z M 291.640625 227.886719 C 286.121094 227.699219 280.605469 227.800781 275.089844 228.222656 C 256.417969 228.222656 239.425781 231.625 219.050781 236.730469 L 219.050781 272.417969 L 256.398438 258.800781 L 276.757812 252.015625 C 276.757812 252.015625 285.265625 250.320312 290.363281 248.625 C 298.851562 246.929688 309.023438 250.320312 309.023438 250.320312 C 314.121094 250.320312 317.523438 252.003906 317.523438 255.410156 C 319.214844 258.800781 315.816406 260.519531 307.332031 263.914062 L 288.667969 270.722656 L 220.769531 296.183594 L 220.769531 331.875 L 251.316406 321.671875 L 336.183594 291.097656 L 346.375 285.984375 C 366.742188 279.183594 375.230469 270.6875 373.535156 260.496094 C 373.535156 250.316406 361.65625 243.527344 341.292969 236.730469 C 324.738281 231.628906 308.191406 228.441406 291.640625 227.886719 Z M 291.640625 227.886719 " fill-opacity="1" fill-rule="nonzero"/></svg>