<?xml version="1.0" encoding="UTF-8"?><svg xmlns="http://www.w3.org/2000/svg" xmlns:xlink="http://www.w3.org/1999/xlink" contentScriptType="text/ecmascript" width="375" zoomAndPan="magnify" contentStyleType="text/css" viewBox="0 0 375 374.999991" height="374.999991" preserveAspectRatio="xMidYMid meet" version="1.0"><defs><clipPath id="clip-0"><path d="M 2.046875 0 L 373.296875 0 L 373.296875 375 L 2.046875 375 Z M 2.046875 0 " clip-rule="nonzero"/></clipPath></defs><g clip-path="url(#clip-0)"><path fill="rgb(0%, 44.709778%, 0%)" d="M 187.351562 0.0234375 C 89.667969 0.0234375 9.644531 75.957031 2.046875 172.445312 L 101.707031 214 C 110.148438 208.175781 120.359375 204.769531 131.332031 204.769531 C 132.320312 204.769531 133.296875 204.800781 134.257812 204.855469 L 178.59375 140.078125 L 178.59375 139.171875 C 178.59375 100.191406 210.046875 68.472656 248.710938 68.472656 C 287.371094 68.472656 318.824219 100.191406 318.824219 139.171875 C 318.824219 178.140625 287.371094 209.882812 248.710938 209.882812 C 248.171875 209.882812 247.652344 209.871094 247.113281 209.855469 L 183.898438 255.320312 C 183.945312 256.160156 183.957031 257 183.957031 257.824219 C 183.957031 287.09375 160.347656 310.910156 131.332031 310.910156 C 105.855469 310.910156 84.542969 292.570312 79.726562 268.285156 L 8.441406 238.570312 C 30.515625 317.269531 102.230469 374.964844 187.351562 374.964844 C 290.054688 374.964844 373.296875 291.019531 373.296875 187.484375 C 373.296875 83.953125 290.054688 0.0234375 187.351562 0.0234375 Z M 118.570312 284.46875 L 95.730469 274.949219 C 99.773438 283.457031 106.785156 290.570312 116.082031 294.464844 C 136.179688 302.914062 159.347656 293.308594 167.730469 273.039062 C 171.777344 263.214844 171.804688 252.394531 167.789062 242.554688 C 163.785156 232.71875 156.203125 225.039062 146.46875 220.953125 C 136.792969 216.910156 126.4375 217.054688 117.339844 220.519531 L 140.941406 230.355469 C 155.765625 236.585938 162.769531 253.738281 156.59375 268.691406 C 150.429688 283.628906 133.394531 290.699219 118.570312 284.46875 Z M 295.4375 139.167969 C 295.4375 113.195312 274.46875 92.050781 248.710938 92.050781 C 222.941406 92.050781 201.988281 113.195312 201.988281 139.167969 C 201.988281 165.140625 222.941406 186.265625 248.710938 186.265625 C 274.46875 186.265625 295.4375 165.140625 295.4375 139.167969 Z M 213.691406 139.085938 C 213.691406 119.546875 229.410156 103.707031 248.785156 103.707031 C 268.171875 103.707031 283.894531 119.546875 283.894531 139.085938 C 283.894531 158.636719 268.171875 174.472656 248.785156 174.472656 C 229.410156 174.472656 213.691406 158.636719 213.691406 139.085938 Z M 213.691406 139.085938 " fill-opacity="1" fill-rule="nonzero"/></g></svg>