<?xml version="1.0" encoding="UTF-8"?><svg xmlns="http://www.w3.org/2000/svg" xmlns:xlink="http://www.w3.org/1999/xlink" contentScriptType="text/ecmascript" width="375" zoomAndPan="magnify" contentStyleType="text/css" viewBox="0 0 375 374.999991" height="374.999991" preserveAspectRatio="xMidYMid meet" version="1.0"><path fill="rgb(0%, 44.709778%, 0%)" d="M 59.0625 114.734375 C 59.40625 120.84375 59.734375 122.515625 62.234375 127.46875 C 65.921875 135 71.375 140.515625 78.90625 144.21875 C 84.109375 146.8125 85.4375 147.0625 92.203125 147.3125 C 98.3125 147.5625 100.484375 147.3125 104.59375 145.875 C 121.40625 140.1875 131.625 123.859375 128.703125 107.03125 C 125.4375 87.1875 106.4375 73.796875 86.9375 77.734375 C 82.078125 78.65625 74.640625 82.40625 70.625 85.859375 C 62.5 92.890625 58.40625 102.921875 59.0625 114.734375 Z M 59.0625 114.734375 " fill-opacity="1" fill-rule="nonzero"/><path fill="rgb(0%, 44.709778%, 0%)" d="M 80.25 1.21875 C 42.90625 7.90625 12.875 35.53125 3.421875 71.859375 C 0 85 -0.25 92.703125 0.15625 194.484375 C 0.3125 287.890625 0.40625 290.078125 2 297.359375 C 10.625 336.28125 38.25 363.984375 77.578125 373.109375 C 82.6875 374.28125 89.21875 374.53125 131.234375 374.703125 C 174.671875 375.046875 179.1875 374.953125 180.375 373.78125 C 181.546875 372.609375 181.625 357.625 181.625 187.78125 C 181.625 61.796875 181.375 2.546875 180.875 1.46875 C 180.125 0.03125 178.78125 -0.03125 133.25 0.03125 C 96.25 0.125 85.140625 0.375 80.28125 1.203125 Z M 150.28125 30.203125 L 150.28125 187.578125 L 150.453125 187.5625 L 150.453125 344.84375 L 118.8125 344.4375 C 89.6875 344.09375 86.59375 343.9375 80.734375 342.5 C 55.703125 336.0625 37.203125 316.796875 31.9375 291.703125 C 30.265625 283.828125 30.265625 90.71875 31.859375 83.015625 C 36.546875 61.171875 51.6875 43.09375 72.03125 34.96875 C 82.25 30.859375 87.015625 30.359375 120.234375 30.296875 Z M 150.28125 30.203125 " fill-opacity="1" fill-rule="nonzero"/><path fill="rgb(0%, 44.709778%, 0%)" d="M 219.34375 0.46875 C 219 0.71875 218.84375 84.84375 218.84375 187.5625 C 218.84375 356.90625 218.9375 374.0625 220.09375 374.5625 C 222.1875 375.3125 282.4375 375.0625 289.890625 374.21875 C 321.4375 370.609375 349.3125 351.453125 364.375 322.984375 C 366.296875 319.3125 368.890625 313.203125 370.234375 309.4375 C 375.09375 294.859375 375 298.71875 375 187.140625 C 375 98.0625 374.84375 84.765625 373.75 79.15625 C 366.046875 38.71875 335.171875 8.171875 294.65625 1.234375 C 289.203125 0.3125 280.859375 0.046875 253.8125 0.046875 C 235.0625 -0.046875 219.578125 0.203125 219.328125 0.453125 L 219.34375 0.453125 Z M 256.90625 194.765625 C 262.671875 175.765625 282.84375 164.546875 302.28125 169.65625 L 302.28125 169.640625 C 314.421875 172.8125 324.296875 182.03125 328.390625 193.84375 C 330.984375 201.125 330.90625 211.84375 328.296875 218.546875 C 323.53125 230.84375 314.234375 239.46875 302.265625 242.65625 C 282.84375 247.671875 262.1875 235.953125 256.578125 216.703125 C 254.890625 210.84375 254.984375 200.875 256.90625 194.765625 Z M 256.90625 194.765625 " fill-opacity="1" fill-rule="nonzero"/></svg>